<?xml version="1.0" encoding="utf-8"?>
<!-- Generator: Adobe Illustrator 26.2.1, SVG Export Plug-In . SVG Version: 6.00 Build 0)  -->
<svg version="1.1" xmlns="http://www.w3.org/2000/svg" xmlns:xlink="http://www.w3.org/1999/xlink" x="0px" y="0px"
	 viewBox="0 0 410 404" style="enable-background:new 0 0 410 404;" xml:space="preserve">
<style type="text/css">
	.st0{fill:url(#SVGID_1_);stroke:#282828;stroke-width:9;stroke-miterlimit:10;}
	.st1{fill:url(#SVGID_00000031911876069708557730000014674571796708549792_);}
	.st2{fill:#33CCFF;}
	.st3{fill:url(#SVGID_00000033359094963401271940000010128518983760972712_);}
</style>
<g id="Layer_1">
	<radialGradient id="SVGID_1_" cx="185.9861" cy="47.8042" r="348.7094" gradientUnits="userSpaceOnUse">
		<stop  offset="0" style="stop-color:#E5FF2E"/>
		<stop  offset="0.1586" style="stop-color:#F5DC24"/>
		<stop  offset="0.2814" style="stop-color:#FFC61E"/>
		<stop  offset="0.5631" style="stop-color:#FEC41F"/>
		<stop  offset="0.6646" style="stop-color:#F9BD23"/>
		<stop  offset="0.737" style="stop-color:#F0B229"/>
		<stop  offset="0.7955" style="stop-color:#E3A132"/>
		<stop  offset="0.8457" style="stop-color:#D38B3E"/>
		<stop  offset="0.89" style="stop-color:#BF6F4C"/>
		<stop  offset="0.9302" style="stop-color:#A74F5D"/>
		<stop  offset="0.9658" style="stop-color:#8C2B70"/>
		<stop  offset="0.9988" style="stop-color:#6D0286"/>
		<stop  offset="1" style="stop-color:#6C0087"/>
	</radialGradient>
	<circle class="st0" cx="206.3" cy="202" r="188.6"/>
	
		<radialGradient id="SVGID_00000038411973285279527410000011993618863947530117_" cx="203.6753" cy="216.284" r="200.2534" gradientTransform="matrix(1 0 0 0.9875 0 0.1566)" gradientUnits="userSpaceOnUse">
		<stop  offset="2.492013e-07" style="stop-color:#21347F"/>
		<stop  offset="0.2414" style="stop-color:#282076"/>
		<stop  offset="0.5513" style="stop-color:#340068"/>
		<stop  offset="0.6917" style="stop-color:#37006A;stop-opacity:0.6871"/>
		<stop  offset="0.7998" style="stop-color:#41006F;stop-opacity:0.4462"/>
		<stop  offset="0.8971" style="stop-color:#510078;stop-opacity:0.2293"/>
		<stop  offset="0.9876" style="stop-color:#680085;stop-opacity:2.766901e-02"/>
		<stop  offset="1" style="stop-color:#6C0087;stop-opacity:0"/>
	</radialGradient>
	
		<ellipse style="fill:url(#SVGID_00000038411973285279527410000011993618863947530117_);" cx="206.3" cy="214.6" rx="208.5" ry="205.9"/>
	<g>
		<path class="st2" d="M145.6,189.9c0,0-8.7,59.6,61.2,58.7c71.7-0.9,65.2-58.7,65.2-58.7H145.6z"/>
		<path class="st2" d="M103.4,194h-1.9c-5.7,0-10.3-4.6-10.3-10.3v-53.2c0-5.7,4.6-10.3,10.3-10.3h1.9c5.7,0,10.3,4.6,10.3,10.3
			v53.2C113.7,189.4,109.1,194,103.4,194z"/>
		<path class="st2" d="M311.1,194h-1.9c-5.7,0-10.3-4.6-10.3-10.3v-53.2c0-5.7,4.6-10.3,10.3-10.3h1.9c5.7,0,10.3,4.6,10.3,10.3
			v53.2C321.4,189.4,316.8,194,311.1,194z"/>
		<path class="st2" d="M153.2,225.8c0,0,23.1-6.5,51.3-6.5s57.5,6.5,57.5,6.5s-10.6,19.8-48.9,22.9S157.4,233.9,153.2,225.8z"/>
	</g>
</g>
<g id="Layer_2">
	
		<radialGradient id="SVGID_00000076605939646084429030000011035142474923753625_" cx="205.8522" cy="225.6277" r="173.955" gradientUnits="userSpaceOnUse">
		<stop  offset="4.984026e-07" style="stop-color:#FFFFFF"/>
		<stop  offset="1" style="stop-color:#FFFFFF;stop-opacity:0.2"/>
	</radialGradient>
	<path style="fill:url(#SVGID_00000076605939646084429030000011035142474923753625_);" d="M369.1,0h-1h-39.9h-1h-39.9h-1h-39.9h-1
		h-39.9h-1h-39.9h-1h-39.9h-1H82.8h-1H41.9h-1H0v33.6v1.1v32.5v1.1v32.5v1.1v32.5v1.1v32.5v1.1V202v1v32.6v1.1v32.5v1.1v32.5v1.1
		v32.5v1.1v32.5v1.1V405h40.9h1h39.9h1h39.9h1h39.9h1h39.9h1h39.9h1h39.9h1h39.9h1h39.9h1H410v-33.6v-1.1v-32.5v-1.1v-32.5v-1.1
		v-32.5v-1.1v-32.5v-1.1V203v-1v-32.6v-1.1v-32.5v-1.1v-32.5v-1.1V68.4v-1.1V34.8v-1.1V0H369.1z M328.2,1h39.9v32.6h-39.9V1z
		 M368.1,67.3h-39.9V34.8h39.9V67.3z M368.1,100.9h-39.9V68.4h39.9V100.9z M368.1,134.6h-39.9v-32.5h39.9V134.6z M368.1,168.2h-39.9
		v-32.5h39.9V168.2z M368.1,202h-39.9v-32.6h39.9V202z M368.1,235.6h-39.9V203h39.9V235.6z M368.1,269.3h-39.9v-32.5h39.9V269.3z
		 M368.1,302.9h-39.9v-32.5h39.9V302.9z M368.1,336.6h-39.9v-32.5h39.9V336.6z M368.1,370.2h-39.9v-32.5h39.9V370.2z M41.9,370.2
		v-32.5h39.9v32.5H41.9z M41.9,304.1h39.9v32.5H41.9V304.1z M41.9,270.4h39.9v32.5H41.9V270.4z M41.9,236.8h39.9v32.5H41.9V236.8z
		 M41.9,203h39.9v32.6H41.9V203z M41.9,169.4h39.9V202H41.9V169.4z M41.9,135.7h39.9v32.5H41.9V135.7z M41.9,102.1h39.9v32.5H41.9
		V102.1z M41.9,68.4h39.9v32.5H41.9V68.4z M41.9,34.8h39.9v32.5H41.9V34.8z M327.2,34.8v32.5h-39.9V34.8H327.2z M327.2,100.9h-39.9
		V68.4h39.9V100.9z M327.2,134.6h-39.9v-32.5h39.9V134.6z M327.2,168.2h-39.9v-32.5h39.9V168.2z M327.2,202h-39.9v-32.6h39.9V202z
		 M327.2,235.6h-39.9V203h39.9V235.6z M327.2,269.3h-39.9v-32.5h39.9V269.3z M327.2,302.9h-39.9v-32.5h39.9V302.9z M327.2,336.6
		h-39.9v-32.5h39.9V336.6z M82.8,336.6v-32.5h39.9v32.5H82.8z M82.8,270.4h39.9v32.5H82.8V270.4z M82.8,236.8h39.9v32.5H82.8V236.8z
		 M82.8,203h39.9v32.6H82.8V203z M82.8,169.4h39.9V202H82.8V169.4z M82.8,135.7h39.9v32.5H82.8V135.7z M82.8,102.1h39.9v32.5H82.8
		V102.1z M82.8,68.4h39.9v32.5H82.8V68.4z M286.3,68.4v32.5h-39.9V68.4H286.3z M286.3,134.6h-39.9v-32.5h39.9V134.6z M286.3,168.2
		h-39.9v-32.5h39.9V168.2z M286.3,202h-39.9v-32.6h39.9V202z M286.3,235.6h-39.9V203h39.9V235.6z M286.3,269.3h-39.9v-32.5h39.9
		V269.3z M286.3,302.9h-39.9v-32.5h39.9V302.9z M123.7,302.9v-32.5h39.9v32.5H123.7z M123.7,236.8h39.9v32.5h-39.9V236.8z
		 M123.7,203h39.9v32.6h-39.9V203z M123.7,169.4h39.9V202h-39.9V169.4z M123.7,135.7h39.9v32.5h-39.9V135.7z M123.7,102.1h39.9v32.5
		h-39.9V102.1z M245.4,102.1v32.5h-39.9v-32.5H245.4z M245.4,168.2h-39.9v-32.5h39.9V168.2z M245.4,202h-39.9v-32.6h39.9V202z
		 M245.4,235.6h-39.9V203h39.9V235.6z M245.4,269.3h-39.9v-32.5h39.9V269.3z M164.6,269.3v-32.5h39.9v32.5H164.6z M164.6,203h39.9
		v32.6h-39.9V203z M164.6,169.4h39.9V202h-39.9V169.4z M164.6,135.7h39.9v32.5h-39.9V135.7z M204.5,102.1v32.5h-39.9v-32.5H204.5z
		 M164.6,302.9v-32.5h39.9v32.5H164.6z M205.5,302.9v-32.5h39.9v32.5H205.5z M245.4,68.4v32.5h-39.9V68.4H245.4z M204.5,68.4v32.5
		h-39.9V68.4H204.5z M163.6,68.4v32.5h-39.9V68.4H163.6z M123.7,336.6v-32.5h39.9v32.5H123.7z M164.6,336.6v-32.5h39.9v32.5H164.6z
		 M205.5,336.6v-32.5h39.9v32.5H205.5z M246.4,336.6v-32.5h39.9v32.5H246.4z M286.3,34.8v32.5h-39.9V34.8H286.3z M245.4,34.8v32.5
		h-39.9V34.8H245.4z M204.5,34.8v32.5h-39.9V34.8H204.5z M163.6,34.8v32.5h-39.9V34.8H163.6z M122.7,34.8v32.5H82.8V34.8H122.7z
		 M82.8,370.2v-32.5h39.9v32.5H82.8z M123.7,370.2v-32.5h39.9v32.5H123.7z M164.6,370.2v-32.5h39.9v32.5H164.6z M205.5,370.2v-32.5
		h39.9v32.5H205.5z M246.4,370.2v-32.5h39.9v32.5H246.4z M287.3,370.2v-32.5h39.9v32.5H287.3z M287.3,1h39.9v32.6h-39.9V1z M246.4,1
		h39.9v32.6h-39.9V1z M205.5,1h39.9v32.6h-39.9V1z M164.6,1h39.9v32.6h-39.9V1z M123.7,1h39.9v32.6h-39.9V1z M82.8,1h39.9v32.6H82.8
		V1z M41.9,1h39.9v32.6H41.9V1z M1,1h39.9v32.6H1V1z M1,34.8h39.9v32.5H1V34.8z M1,68.4h39.9v32.5H1V68.4z M1,102.1h39.9v32.5H1
		V102.1z M1,135.7h39.9v32.5H1V135.7z M1,169.4h39.9V202H1V169.4z M1,203h39.9v32.6H1V203z M1,236.8h39.9v32.5H1V236.8z M1,270.4
		h39.9v32.5H1V270.4z M1,304.1h39.9v32.5H1V304.1z M1,337.7h39.9v32.5H1V337.7z M40.9,404H1v-32.6h39.9V404z M81.8,404H41.9v-32.6
		h39.9V404z M122.7,404H82.8v-32.6h39.9V404z M163.6,404h-39.9v-32.6h39.9V404z M204.5,404h-39.9v-32.6h39.9V404z M245.4,404h-39.9
		v-32.6h39.9V404z M286.3,404h-39.9v-32.6h39.9V404z M327.2,404h-39.9v-32.6h39.9V404z M368.1,404h-39.9v-32.6h39.9V404z M409,404
		h-39.9v-32.6H409V404z M409,370.2h-39.9v-32.5H409V370.2z M409,336.6h-39.9v-32.5H409V336.6z M409,302.9h-39.9v-32.5H409V302.9z
		 M409,269.3h-39.9v-32.5H409V269.3z M409,235.6h-39.9V203H409V235.6z M409,202h-39.9v-32.6H409V202z M409,168.2h-39.9v-32.5H409
		V168.2z M409,134.6h-39.9v-32.5H409V134.6z M409,100.9h-39.9V68.4H409V100.9z M409,67.3h-39.9V34.8H409V67.3z M369.1,33.6V1H409
		v32.6H369.1z"/>
</g>
</svg>
